# Blender 4.5.3 LTS
# www.blender.org
mtllib PuertaE.mtl
o PuertaE
v -4.173329 3.548873 5.045390
v -4.173329 3.548873 4.762169
v -5.926414 3.548873 4.762169
v -5.926414 3.548873 5.045390
v -4.173329 0.040118 5.045390
v -4.173329 0.040118 4.762169
v -5.926414 0.040118 5.045390
v -5.926414 0.040118 4.762169
vn 1.0000 -0.0000 -0.0000
vn -0.0000 -0.0000 1.0000
vn -0.0000 -0.0000 -1.0000
vn -0.0000 -1.0000 -0.0000
vn -0.0000 1.0000 -0.0000
vn -1.0000 -0.0000 -0.0000
vt 0.294604 1.826574
vt 0.294604 -0.507942
vt -0.062070 -0.507942
vt 3.011008 -0.027639
vt 2.099493 -0.024980
vt 2.101627 -0.845300
vt 2.103839 -0.833858
vt 3.015354 -0.836516
vt 3.013220 -0.016197
vt -0.956099 1.229174
vt -0.956099 0.981423
vt -1.396595 0.981423
vt -2.137967 1.252260
vt -2.137968 1.500009
vt -1.697472 1.500009
vt -0.062070 1.826574
vt 3.013142 -0.847958
vt 2.101704 -0.013539
vt -1.396595 1.229173
vt -1.697472 1.252260
vt 1.177812 1.826574
vt 0.821138 -0.507942
vt 0.821138 1.826574
vt 1.177812 -0.507942
s 0
usemtl Material.012
f 6/1/1 2/2/1 1/3/1
f 7/4/2 5/5/2 1/6/2
f 3/7/3 2/8/3 6/9/3
f 8/10/4 6/11/4 5/12/4
f 4/13/5 1/14/5 2/15/5
f 6/1/1 1/3/1 5/16/1
f 7/4/2 1/6/2 4/17/2
f 3/7/3 6/9/3 8/18/3
f 8/10/4 5/12/4 7/19/4
f 4/13/5 2/15/5 3/20/5
f 7/21/6 3/22/6 8/23/6
f 7/21/6 4/24/6 3/22/6
