# Blender 4.5.3 LTS
# www.blender.org
mtllib Retrato.mtl
o Retrato
v -1.887508 2.706614 -2.185223
v -1.887508 3.415791 -2.185223
v -1.887508 2.706614 -2.192445
v -1.887508 3.415791 -2.192445
v -0.664848 2.706614 -2.185223
v -0.664848 3.415791 -2.185223
v -0.664848 2.706614 -2.192445
v -0.664848 3.415791 -2.192445
v -1.904484 2.696768 -2.185123
v -1.904485 3.425637 -2.185123
v -1.904485 2.696768 -2.192545
v -1.904484 3.425637 -2.192545
v -0.647871 2.696768 -2.185123
v -0.647873 3.425637 -2.185123
v -0.647873 2.696768 -2.192545
v -0.647871 3.425637 -2.192545
vn -1.0000 -0.0000 -0.0000
vn -0.0000 -0.0000 -1.0000
vn 1.0000 -0.0000 -0.0000
vn -0.0000 -0.0000 1.0000
vn -0.0000 -1.0000 -0.0000
vn -0.0000 1.0000 -0.0000
vn 1.0000 -0.0000 -0.0002
vn -1.0000 -0.0000 0.0002
vn -0.0000 1.0000 0.0001
vn -0.0000 -1.0000 0.0001
vn 1.0000 -0.0000 0.0002
vn -1.0000 -0.0000 -0.0002
vn -0.0000 1.0000 -0.0001
vn -0.0000 -1.0000 -0.0001
vt 0.002557 0.992365
vt 0.997444 -0.002523
vt 0.997444 0.992365
vt 0.002557 -0.002523
vt 0.997444 -0.997409
vt 0.002556 -0.997409
vt 0.997443 -1.992297
vt 0.002556 -1.992297
vt 0.997443 -2.987184
vt 1.992331 -1.992297
vt 1.992331 -0.997409
vt -0.992331 -0.997409
vt 0.002556 -2.987184
vt -0.992331 -1.992297
s 0
usemtl Material.027
f 2/1/1 3/2/1 1/3/1
f 4/4/2 7/5/2 3/2/2
f 8/6/3 5/7/3 7/5/3
f 6/8/4 1/9/4 5/7/4
f 7/5/5 1/10/5 3/11/5
f 4/12/6 6/8/6 8/6/6
f 2/1/1 4/4/1 3/2/1
f 4/4/2 8/6/2 7/5/2
f 8/6/3 6/8/3 5/7/3
f 6/8/4 2/13/4 1/9/4
f 7/5/5 5/7/5 1/10/5
f 4/12/6 2/14/6 6/8/6
usemtl Material.064
f 10/1/7 9/3/7 11/2/7
f 12/4/4 11/2/4 15/5/4
f 16/6/8 15/5/8 13/7/8
f 14/8/2 13/7/2 9/9/2
f 15/5/9 11/11/9 9/10/9
f 12/12/10 16/6/10 14/8/10
f 10/1/11 11/2/11 12/4/11
f 12/4/4 15/5/4 16/6/4
f 16/6/12 13/7/12 14/8/12
f 14/8/2 9/9/2 10/13/2
f 15/5/13 9/10/13 13/7/13
f 12/12/14 14/8/14 10/14/14
o Marco
v -2.011264 2.634832 -2.192050
v -2.011264 3.487573 -2.192050
v -2.011264 2.634832 -2.256140
v -1.887508 2.706614 -2.218951
v -2.011264 3.487573 -2.256140
v -1.887508 3.415791 -2.218951
v -0.541092 2.634832 -2.192050
v -0.541092 3.487573 -2.192050
v -0.541092 2.634832 -2.256140
v -0.664848 2.706614 -2.218951
v -0.541092 3.487573 -2.256140
v -0.664848 3.415791 -2.218951
v -0.664848 2.706614 -2.192050
v -1.887508 3.415791 -2.192050
v -0.664848 3.415791 -2.192050
v -1.887508 2.706614 -2.192050
v -2.032484 2.622524 -2.191125
v -2.032485 3.499881 -2.191125
v -2.032485 2.622524 -2.257065
v -1.866288 2.718923 -2.218026
v -2.032484 3.499881 -2.257065
v -1.866289 3.403483 -2.218025
v -0.519871 2.622524 -2.191125
v -0.519873 3.499881 -2.191125
v -0.519873 2.622524 -2.257065
v -0.686068 2.718922 -2.218025
v -0.519871 3.499881 -2.257065
v -0.686068 3.403482 -2.218026
v -0.675930 2.713042 -2.190601
v -1.876426 3.409363 -2.190601
v -0.675930 3.409363 -2.190601
v -1.876426 2.713042 -2.190601
vn -1.0000 -0.0000 -0.0000
vn -0.0000 -0.0000 -1.0000
vn 1.0000 -0.0000 -0.0000
vn -0.0000 -0.0000 1.0000
vn -0.0000 -1.0000 -0.0000
vn -0.0000 1.0000 -0.0000
vn -0.0000 -0.0058 -1.0000
vn -0.0000 0.0058 -1.0000
vn -0.9380 -0.0000 -0.3467
vn 0.9380 -0.0000 -0.3467
vn -0.0000 -0.9778 -0.2096
vn -0.0000 0.9778 -0.2096
vn -0.0034 -0.0000 -1.0000
vn 0.0034 -0.0000 -1.0000
vn -0.0000 -0.9778 -0.2097
vn -0.0000 0.9778 -0.2097
vt 0.625000 0.000000
vt 0.375000 0.250000
vt 0.375000 0.000000
vt 0.625000 0.250000
vt 0.375000 0.500000
vt 0.625000 0.500000
vt 0.375000 0.750000
vt 0.625000 0.750000
vt 0.625000 1.000000
vt 0.603956 0.771045
vt 0.375000 1.000000
vt 0.396045 0.771045
vt 0.396045 0.978956
vt 0.125000 0.750000
vt 0.125000 0.500000
vt 0.875000 0.500000
vt 0.375000 0.123824
vt 0.625000 0.626176
vt 0.125000 0.626176
vt 0.375000 0.626176
vt 0.875000 0.626176
vt 0.603956 0.978956
vt 0.875000 0.750000
vt 0.625000 0.123824
s 0
usemtl Material.029
f 18/15/15 19/16/15 17/17/15
f 21/18/16 25/19/16 19/16/16
f 27/20/17 23/21/17 25/19/17
f 24/22/18 18/23/18 31/24/18
f 17/25/18 29/26/18 32/27/18
f 25/19/19 17/28/19 19/29/19
f 21/30/20 24/22/20 27/20/20
f 22/18/17 32/31/17 20/16/17
f 26/19/18 22/18/18 20/16/18
f 26/19/15 31/32/15 28/20/15
f 26/19/20 32/33/20 29/34/20
f 22/30/19 31/32/19 30/35/19
f 18/15/15 21/18/15 19/16/15
f 21/18/16 27/20/16 25/19/16
f 27/20/17 24/22/17 23/21/17
f 29/26/18 23/21/18 31/24/18
f 23/21/18 24/22/18 31/24/18
f 18/23/18 17/25/18 32/27/18
f 18/23/18 32/27/18 30/36/18
f 18/23/18 30/36/18 31/24/18
f 17/25/18 23/21/18 29/26/18
f 25/19/19 23/21/19 17/28/19
f 21/30/20 18/37/20 24/22/20
f 22/18/17 30/38/17 32/31/17
f 26/19/18 28/20/18 22/18/18
f 26/19/15 29/34/15 31/32/15
f 26/19/20 20/29/20 32/33/20
f 22/30/19 28/20/19 31/32/19
usemtl Material.065
f 34/15/17 33/17/17 35/16/17
f 37/18/18 35/16/18 41/19/18
f 43/20/15 41/19/15 39/21/15
f 40/22/21 47/24/21 34/23/21
f 33/25/22 48/27/22 45/26/22
f 41/19/20 35/29/20 33/28/20
f 37/30/19 43/20/19 40/22/19
f 38/18/23 36/16/23 48/31/23
f 42/19/16 36/16/16 38/18/16
f 42/19/24 44/20/24 47/32/24
f 42/19/25 45/34/25 48/33/25
f 38/30/26 46/35/26 47/32/26
f 34/15/17 35/16/17 37/18/17
f 37/18/18 41/19/18 43/20/18
f 43/20/15 39/21/15 40/22/15
f 45/26/27 47/24/27 39/21/27
f 39/21/27 47/24/27 40/22/27
f 34/23/28 48/27/28 33/25/28
f 34/23/28 46/36/28 48/27/28
f 34/23/21 47/24/21 46/36/21
f 33/25/22 45/26/22 39/21/22
f 41/19/20 33/28/20 39/21/20
f 37/30/19 40/22/19 34/37/19
f 38/18/23 48/31/23 46/38/23
f 42/19/16 38/18/16 44/20/16
f 42/19/24 47/32/24 45/34/24
f 42/19/29 48/33/29 36/29/29
f 38/30/30 47/32/30 44/20/30
