# Blender 4.5.3 LTS
# www.blender.org
mtllib PuertaS.mtl
o PuertaS
v -5.325519 3.550117 -2.245130
v -5.325519 3.550117 -2.528351
v -7.078604 3.550117 -2.528351
v -7.078604 3.550117 -2.245130
v -5.325519 0.041363 -2.245130
v -5.325519 0.041363 -2.528351
v -7.078604 0.041363 -2.245130
v -7.078604 0.041363 -2.528351
vn -0.0000 1.0000 -0.0000
vn 1.0000 -0.0000 -0.0000
vn -0.0000 -1.0000 -0.0000
vn -0.0000 -0.0000 1.0000
vn -0.0000 -0.0000 -1.0000
vn -1.0000 -0.0000 -0.0000
vt -2.319378 1.078057
vt -2.734049 1.311281
vt -2.319378 1.311281
vt 0.692201 0.262091
vt 0.636955 0.710170
vt 0.636955 0.278951
vt -2.266309 1.336571
vt -1.851638 1.103346
vt -2.266308 1.103346
vt 2.947934 0.012493
vt 1.969648 -0.973011
vt 1.964124 0.006313
vt 1.989215 -0.980125
vt 2.967502 0.005379
vt 2.973025 -0.973945
vt 0.025839 0.730722
vt 0.081086 0.282643
vt 0.081086 0.713862
vt -2.734049 1.078057
vt 0.692201 0.693310
vt -1.851638 1.336571
vt 2.953458 -0.966830
vt 1.983692 -0.000801
vt 0.025839 0.299503
s 0
usemtl Material.009
f 3/1/1 1/2/1 2/3/1
f 1/4/2 6/5/2 2/6/2
f 7/7/3 6/8/3 5/9/3
f 4/10/4 5/11/4 1/12/4
f 8/13/5 2/14/5 6/15/5
f 7/16/6 3/17/6 8/18/6
f 3/1/1 4/19/1 1/2/1
f 1/4/2 5/20/2 6/5/2
f 7/7/3 8/21/3 6/8/3
f 4/10/4 7/22/4 5/11/4
f 8/13/5 3/23/5 2/14/5
f 7/16/6 4/24/6 3/17/6
